<?xml version='1.0' encoding='utf-8'?>
<svg xmlns="http://www.w3.org/2000/svg" clip-rule="evenodd" fill-rule="evenodd" stroke-linejoin="round" stroke-miterlimit="2" version="1.1" viewBox="0 0 568 568"> <g transform="translate(-401.95 -144.37)"> <g transform="scale(4.1667)"> <g transform="matrix(.24 0 0 .24 2.3093 .46573)"> <rect x="392.33" y="142.43" width="567.77" height="567.77" fill="#fff"/> </g> <g transform="translate(132.74 114.57)"> <path d="m0-2.711c-1.011 5.1-5.964 8.416-11.064 7.406-0.459-0.091-0.898-0.224-1.326-0.376-1.958-0.695-3.579-1.989-4.679-3.639-1.332-2-1.905-4.506-1.401-7.05 0.499-2.519 1.962-4.6 3.928-5.943 1.676-1.143 3.717-1.74 5.842-1.617 0.429 0.025 0.861 0.069 1.294 0.155 5.1 1.01 8.416 5.963 7.406 11.064m-9.355-13.707c-0.922 0.026-1.823 0.162-2.694 0.391-4.315 1.132-7.833 4.618-8.759 9.289-0.942 4.756 1.069 9.404 4.754 12.074 0.62 0.451 1.288 0.842 1.999 1.17 0.849 0.393 1.751 0.703 2.71 0.893 2.905 0.576 5.769 0.048 8.17-1.285 3.024 2.539 6.049 5.078 9.073 7.617-2.007-3.345-4.016-6.691-6.023-10.037 1.431-1.567 2.475-3.523 2.917-5.758 1.291-6.516-2.945-12.846-9.462-14.137-0.904-0.179-1.802-0.241-2.685-0.217" fill="#2a3280" fill-rule="nonzero"/> </g> <g transform="matrix(0 -1 -1 0 138.64 123.63)"> <path d="m-6.757-6.755c0.633 0 1.146 3.025 1.146 6.756s-0.513 6.756-1.146 6.756c-0.632 0-1.145-3.025-1.145-6.756s0.513-6.756 1.145-6.756" fill="#dadada" fill-rule="nonzero"/> </g> <g transform="translate(208.7 86.074)"> <path d="m0 7.899c-0.039 0.325-0.071 0.621-0.105 0.923-0.035-0.302-0.067-0.598-0.106-0.923h0.211zm0.482 0c-0.038 0.319-0.07 0.611-0.103 0.908-0.034-0.297-0.066-0.589-0.105-0.908h0.208zm0.487 0c-0.039 0.325-0.073 0.621-0.107 0.923-0.033-0.302-0.066-0.598-0.105-0.923h0.212zm0.274 0h0.196c-0.037 0.301-0.066 0.575-0.098 0.856-0.032-0.281-0.062-0.555-0.098-0.856m0.576 0.923c-0.034-0.302-0.067-0.598-0.106-0.923h0.212c-0.039 0.325-0.072 0.621-0.106 0.923m0.588-0.923c-0.038 0.319-0.07 0.611-0.104 0.908-0.033-0.297-0.066-0.589-0.104-0.908h0.208zm0.486 0c-0.039 0.325-0.072 0.621-0.106 0.923-0.034-0.302-0.066-0.598-0.105-0.923h0.211zm0.274 0v-1.143h-1.312v-0.6c0.555-0.21 0.954-0.736 0.954-1.363 0-0.628-0.399-1.154-0.954-1.364v-12.554c-0.342 0.089-0.686 0.178-1.029 0.266v12.288c-0.555 0.21-0.952 0.736-0.952 1.364 0 0.627 0.397 1.153 0.952 1.363v0.6h-1.311v1.143c-0.935 7.752-0.361 8.884 0 9.059 0.015 7e-3 0.139 0.066 0.274 0 0.033-0.017 0.069-0.045 0.106-0.083 0.036 0.038 0.072 0.066 0.105 0.083 0.135 0.066 0.259 7e-3 0.274 0 0.034-0.016 0.069-0.045 0.105-0.081 0.035 0.036 0.07 0.065 0.103 0.081 0.135 0.066 0.259 7e-3 0.275 0 0.034-0.017 0.069-0.045 0.105-0.084 0.036 0.039 0.073 0.067 0.107 0.084 0.134 0.066 0.259 7e-3 0.274 0 0.031-0.015 0.065-0.042 0.098-0.076 0.033 0.034 0.066 0.061 0.098 0.076 0.134 0.066 0.259 7e-3 0.274 0 0.034-0.017 0.07-0.045 0.106-0.084 0.036 0.039 0.072 0.067 0.106 0.084 0.135 0.066 0.259 7e-3 0.274 0 0.033-0.016 0.069-0.045 0.104-0.081 0.036 0.036 0.071 0.065 0.104 0.081 0.135 0.066 0.259 7e-3 0.275 0 0.033-0.017 0.069-0.045 0.105-0.083 0.036 0.038 0.072 0.066 0.106 0.083 0.015 7e-3 0.14 0.066 0.274 0 0.36-0.175 0.935-1.307 0-9.059" fill="#f9b334" fill-rule="nonzero"/> </g> <g transform="translate(122.8 62.077)"> <path d="m0 11.342 22.436 6.924c17.037 0.094 34.073 0.188 51.11 0.282 7.066-1.828 14.132-3.656 21.198-5.483-15.869-6.757-31.74-13.515-47.61-20.271-15.711 6.182-31.423 12.365-47.134 18.548" fill="#1e1e1c" fill-rule="nonzero"/> </g> <g transform="translate(200.87 101.56)"> <path d="m0 1.431c-1.234-0.897-3.28-2.295-6.021-3.771 0.937 1.929 1.67 3.971 2.158 6.111 1.516-0.842 2.816-1.648 3.863-2.34" fill="#585857" fill-rule="nonzero"/> </g> <g transform="translate(138.02 101.72)"> <path d="M0,1.272C0.791,1.787 1.893,2.475 3.26,3.242C3.698,1.43 4.304,-0.311 5.068,-1.97C2.785,-0.683 1.061,0.501 0,1.272" fill="#585857" fill-rule="nonzero"/> </g> <g transform="translate(197.01 132.64)"> <path d="m0-27.311c-0.487-2.141-1.221-4.182-2.157-6.111-4.643-9.557-14.414-16.162-25.753-16.162-11.548 0-21.474 6.847-26.007 16.69-0.765 1.659-1.371 3.401-1.809 5.212-0.523 2.167-0.831 4.417-0.831 6.745 0 7.051 2.559 13.498 6.784 18.489-4.532 8.24-9.065 16.481-13.597 24.721 6.887-6.239 13.773-12.478 20.66-18.717 4.323 2.619 9.376 4.153 14.8 4.153 15.821 0 28.646-12.825 28.646-28.646 0-2.194-0.269-4.321-0.736-6.374" fill="#e20a17" fill-rule="nonzero"/> </g> <g transform="translate(169.32 88.686)"> <path d="m0 44.839c-12.382 0-22.419-10.037-22.419-22.419 0-1.114 0.107-2.2 0.264-3.27 0.718-4.894 2.99-9.282 6.335-12.614 4.055-4.038 9.645-6.536 15.82-6.536 6.116 0 11.655 2.456 15.7 6.427 3.447 3.385 5.786 7.877 6.482 12.899 0.14 1.014 0.238 2.041 0.238 3.094 0 12.382-10.038 22.419-22.42 22.419" fill="#fff" fill-rule="nonzero"/> </g> <g transform="translate(138.02 69.506)"> <path d="m0 33.483c3.705-2.693 15.267-10.373 31.893-10.227 16.057 0.141 27.199 7.496 30.956 10.227-2.085-9.993-4.17-19.985-6.255-29.979-5.915-1.726-14.407-3.504-24.69-3.383-9.684 0.114-17.411 1.852-22.316 3.281l-9.588 30.081" fill="#3d3d3b" fill-rule="nonzero"/> </g> <g transform="matrix(-.025377 .99968 .99968 .025377 166.22 65.098)"> <path d="m32.78-23.067c-2.498 4.193-7.441 13.777-7.617 26.923-0.186 13.979 5.125 24.178 7.617 28.364-1.97-2.128-11.143-12.484-10.864-28.358 0.263-14.968 8.749-24.648 10.864-26.929" fill="#1e1e1c" fill-rule="nonzero"/> </g> <g transform="matrix(-.014341 .9999 .9999 .014341 169.89 51.71)"> <path d="m23.225-19.869c-1.711 4.546-3.809 11.768-3.896 20.826-0.092 9.656 2.14 17.322 3.896 21.99-1.053-5.923-1.878-13.1-1.888-21.258-0.01-8.287 0.823-15.567 1.888-21.558" fill="#1e1e1c" fill-rule="nonzero"/> </g> <g transform="translate(130.48 61.664)"> <path d="M0,10.791C11.492,6.609 22.985,2.427 34.478,-1.754L5.702,12.545C3.801,11.96 1.901,11.375 0,10.791" fill="#3d3d3b" fill-rule="nonzero"/> </g> <g transform="translate(179.9 74.209)"> <path d="m0-13.101c10.488 4.367 20.978 8.734 31.466 13.101-11.425-3.743-22.849-7.486-34.273-11.229 0.936-0.624 1.871-1.248 2.807-1.872" fill="#3d3d3b" fill-rule="nonzero"/> </g> <g transform="matrix(-.86107 .50848 .50848 .86107 171.88 126.72)"> <path d="m4.781-31.946c0.965-0.568 8.994 6.371 9.558 15.774 0.639 10.654-8.615 19.254-9.558 18.73-0.81-0.448 4.881-7.348 4.618-17.942-0.245-9.861-5.48-16.056-4.618-16.562" fill="#eeeded" fill-rule="nonzero"/> </g> <g transform="matrix(.77972 -.62612 -.62612 -.77972 133.48 109.79)"> <path d="m-4.438-1.043c0.491-0.311 4.245 2.609 4.462 6.592 0.24 4.411-3.979 7.935-4.462 7.647-0.402-0.241 1.981-3.003 1.886-7.366-0.089-4.105-2.308-6.607-1.886-6.873" fill="#eeeded" fill-rule="nonzero"/> </g> </g> </g> </svg>